{
    "asset" : {
        "generator" : "Khronos glTF Blender I/O v1.7.33",
        "version" : "2.0"
    },
    "scene" : 0,
    "scenes" : [
        {
            "name" : "Scene",
            "nodes" : [
                0
            ]
        }
    ],
    "nodes" : [
        {
            "mesh" : 0,
            "name" : "head",
            "rotation" : [
                0.7071068286895752,
                0,
                0,
                0.7071067094802856
            ],
            "scale" : [
                1.5,
                1.5,
                1.5
            ]
        }
    ],
    "materials" : [
        {
            "doubleSided" : true,
            "name" : "Head",
            "normalTexture" : {
                "index" : 0
            },
            "pbrMetallicRoughness" : {
                "baseColorTexture" : {
                    "index" : 1
                },
                "metallicRoughnessTexture" : {
                    "index" : 2
                }
            }
        }
    ],
    "meshes" : [
        {
            "name" : "head",
            "primitives" : [
                {
                    "attributes" : {
                        "POSITION" : 0,
                        "NORMAL" : 1,
                        "TANGENT" : 2,
                        "TEXCOORD_0" : 3
                    },
                    "indices" : 4,
                    "material" : 0
                }
            ]
        }
    ],
    "textures" : [
        {
            "sampler" : 0,
            "source" : 0
        },
        {
            "sampler" : 0,
            "source" : 1
        },
        {
            "sampler" : 0,
            "source" : 2
        }
    ],
    "images" : [
        {
            "mimeType" : "image/jpeg",
            "name" : "Face_Normal",
            "uri" : "Face_Normal.jpg"
        },
        {
            "mimeType" : "image/jpeg",
            "name" : "Face_Albedo",
            "uri" : "Face_Albedo.jpg"
        },
        {
            "mimeType" : "image/png",
            "name" : "Face_Specular-Face_Roughness",
            "uri" : "Face_Specular-Face_Roughness.png"
        }
    ],
    "accessors" : [
        {
            "bufferView" : 0,
            "componentType" : 5126,
            "count" : 12853,
            "max" : [
                0.11685100197792053,
                0.14802800118923187,
                -0.056894998997449875
            ],
            "min" : [
                -0.11837200075387955,
                -0.0716710016131401,
                -0.3967660069465637
            ],
            "type" : "VEC3"
        },
        {
            "bufferView" : 1,
            "componentType" : 5126,
            "count" : 12853,
            "type" : "VEC3"
        },
        {
            "bufferView" : 2,
            "componentType" : 5126,
            "count" : 12853,
            "type" : "VEC4"
        },
        {
            "bufferView" : 3,
            "componentType" : 5126,
            "count" : 12853,
            "type" : "VEC2"
        },
        {
            "bufferView" : 4,
            "componentType" : 5123,
            "count" : 74460,
            "type" : "SCALAR"
        }
    ],
    "bufferViews" : [
        {
            "buffer" : 0,
            "byteLength" : 154236,
            "byteOffset" : 0
        },
        {
            "buffer" : 0,
            "byteLength" : 154236,
            "byteOffset" : 154236
        },
        {
            "buffer" : 0,
            "byteLength" : 205648,
            "byteOffset" : 308472
        },
        {
            "buffer" : 0,
            "byteLength" : 102824,
            "byteOffset" : 514120
        },
        {
            "buffer" : 0,
            "byteLength" : 148920,
            "byteOffset" : 616944
        }
    ],
    "samplers" : [
        {
            "magFilter" : 9729,
            "minFilter" : 9987
        }
    ],
    "buffers" : [
        {
            "byteLength" : 765864,
            "uri" : "ccYup.bin"
        }
    ]
}
